# xmcd
#
# Track frame offsets:
#	182
#	20980
#	40525
#	56152
#	71327
#	88492
#	105707
#	116847
#	132750
#	147907
#	158725
#	173282
#	191090
#	209075
#	223097
#	236220
#	245932
#	266415
#	282537
#	300412
#
# Disc length: 4198
#
# Revision: 1
# Processed by: cddbd v1.5.1PL0 Copyright (c) Steve Scherf et al.
# Submitted via: ExactAudioCopy v0.95a5
# Normalized: r0:TDELIM( - )
#
DISCID=39106414
DTITLE=Various Artist - New Country
DYEAR=1994
DGENRE=Country
TTITLE0=Darden Smith - Little Victories
TTITLE1=Rosanne Cash - The Wheel
TTITLE2=Hal Ketchum - Sure Love
TTITLE3=Mary-Chapin Carpenter - Passionate Kisses
TTITLE4=Wynnona Judd - Tell Me Why
TTITLE5=Matthews Wright and King - One Of These Days
TTITLE6=Dolly Parton - Put A Little Love In Your Heart
TTITLE7=Willie Nelson - Still Is Still Moving To Me
TTITLE8=Stacy Dean Campbell - Lonesome Wins Again
TTITLE9=Joy White - Little Tears
TTITLE10=Larry Boone - Call Me When The Sun Goes Down
TTITLE11=Darry and Don Ellis - She Needs A Heart
TTITLE12=Mike Reid - Some Somebody
TTITLE13=Ricky Van Shelton - If They Turn Of Our Lights
TTITLE14=Rick Vincent - Hello She Lied
TTITLE15=Bobbie Cryner - I Don't Care
TTITLE16=Joe Diffie - John Deere Green
TTITLE17=Patty Loveless - Blame It On Your Heart
TTITLE18=Rodney Crowell - What Kind Of Love
TTITLE19=Collin Raye - In This Life
EXTD=
EXTT0=
EXTT1=
EXTT2=
EXTT3=
EXTT4=
EXTT5=
EXTT6=
EXTT7=
EXTT8=
EXTT9=
EXTT10=
EXTT11=
EXTT12=
EXTT13=
EXTT14=
EXTT15=
EXTT16=
EXTT17=
EXTT18=
EXTT19=
PLAYORDER=
